# xmcd CD database file
#
# Track frame offsets:
#	150
#	20609
#	39617
#	62731
#	81919
#
# Disc length: 2760 seconds
#
# Revision: 0
# Processed by: cddbd v1.5.1PL0 Copyright (c) Steve Scherf et al.
# Submitted via: CDex 1.51
#
DISCID=3b0ac605
DTITLE=Major Tom and the Carsh Pilots - EP
DYEAR=1900
DGENRE=Blues
TTITLE0=Anyway
TTITLE1=Lady
TTITLE2=Messin' Round
TTITLE3=Going Home
TTITLE4=Out of Control
EXTD=
EXTT0=
EXTT1=
EXTT2=
EXTT3=
EXTT4=
PLAYORDER=
